# xmcd
#
# Track frame offsets:
#	150
#	17963
#	35639
#	54789
#	70363
#	84262
#	98371
#	112614
#	129659
#	146642
#	162034
#	176876
#	193418
#	210643
#	226439
#	240244
#	254608
#	268851
#
# Disc length: 3765 seconds
#
# Revision: 1
# Processed by: cddbd v1.5.2PL0 Copyright (c) Steve Scherf et al.
# Submitted via: audiograbber 1.82.02
#
DISCID=f70eb312
DTITLE=Various Artist - Country Radio - February 2020
DYEAR=2020
DGENRE=Country
TTITLE0=Whiskey Myers - Rolling Stone
TTITLE1=Josh Ward - One More Shot Of Whiskey (PO Clean Edit)
TTITLE2=Tanya Tucker - Bring My Flowers Now
TTITLE3=Miranda Lambert - Bluebird
TTITLE4=Ches Anthony - Home
TTITLE5=Jaclyn Kenyon - Mama Said
TTITLE6=Brad Paisley (Ft. Addie Pratt) - Alive Right Now
TTITLE7=Cody Jinks - Same Kind Of Crazy As Me (PO Clean Edit)
TTITLE8=Sam Grow - Drink About That
TTITLE9=Shane Runion - I Promised You
TTITLE10=Tenille Arts - Somebody Like That
TTITLE11=Noe Palma - Love Your Hometown
TTITLE12=Zac Brown Band - Leaving Love Behind
TTITLE13=Richard Schroder - We All Start Somewhere
TTITLE14=Adam Doleac - Famous
TTITLE15=James Robert Webb - Tulsa Time
TTITLE16=Kevin Lee - It's Alright
TTITLE17=Chris Bandi - Man Enough Now
EXTD=
EXTT0=
EXTT1=
EXTT2=
EXTT3=
EXTT4=
EXTT5=
EXTT6=
EXTT7=
EXTT8=
EXTT9=
EXTT10=
EXTT11=
EXTT12=
EXTT13=
EXTT14=
EXTT15=
EXTT16=
EXTT17=
PLAYORDER=
